<?xml version="1.0" standalone="no"?>
<!DOCTYPE svg PUBLIC "-//W3C//DTD SVG 20010904//EN"
 "http://www.w3.org/TR/2001/REC-SVG-20010904/DTD/svg10.dtd">
<svg version="1.0" xmlns="http://www.w3.org/2000/svg"
 width="225.000000pt" height="225.000000pt" viewBox="0 0 225.000000 225.000000"
 preserveAspectRatio="xMidYMid meet">

<g transform="translate(0.000000,225.000000) scale(0.100000,-0.100000)"
fill="#000000" stroke="none">
<path d="M1045 2224 c-313 -37 -524 -139 -724 -350 -363 -383 -397 -977 -80
-1405 313 -424 892 -565 1367 -332 472 231 714 761 581 1270 -99 378 -408 686
-784 782 -123 32 -267 45 -360 35z m328 -238 c305 -91 529 -320 619 -633 33
-113 33 -343 0 -456 -98 -340 -359 -583 -702 -653 -110 -22 -291 -15 -400 16
-306 86 -541 322 -631 632 -30 105 -37 288 -14 399 73 364 337 631 706 714
103 23 312 14 422 -19z"/>
<path d="M1262 1600 c-13 -6 -124 -103 -247 -216 -230 -211 -244 -229 -230
-287 8 -30 414 -410 471 -440 28 -16 39 -17 68 -7 46 15 67 40 73 90 6 40 4
42 -63 108 -38 37 -120 115 -183 173 l-114 105 177 162 c106 99 178 173 182
188 19 77 -64 153 -134 124z"/>
</g>
</svg>
