<?xml version="1.0" standalone="no"?>
<!DOCTYPE svg PUBLIC "-//W3C//DTD SVG 20010904//EN"
 "http://www.w3.org/TR/2001/REC-SVG-20010904/DTD/svg10.dtd">
<svg version="1.0" xmlns="http://www.w3.org/2000/svg"
 width="689.000000pt" height="613.000000pt" viewBox="0 0 689.000000 613.000000"
 preserveAspectRatio="xMidYMid meet">

<g transform="translate(0.000000,613.000000) scale(0.100000,-0.100000)"
fill="#000000" stroke="none">
<path d="M2577 5672 c-33 -41 -87 -177 -87 -219 0 -13 -56 -23 -130 -23 -68 0
-120 -28 -120 -64 0 -37 21 -46 127 -58 54 -6 103 -16 109 -22 10 -10 21 -71
39 -218 9 -72 70 -184 135 -249 90 -91 207 -139 334 -139 134 1 233 40 332
132 125 118 178 288 140 451 -7 31 -10 60 -6 62 5 3 35 9 69 13 71 10 103 34
99 71 -3 25 -6 26 -96 34 -60 5 -99 13 -109 22 -8 8 -28 57 -44 110 -24 78
-35 99 -63 120 l-33 25 -329 0 -329 -1 -38 -47z"/>
<path d="M1232 5614 c-14 -9 -22 -25 -21 -37 1 -12 -4 -35 -10 -52 -21 -50
-33 -147 -26 -210 14 -136 108 -331 209 -433 l43 -44 -19 -71 c-11 -39 -22
-77 -27 -84 -13 -24 8 -163 35 -231 31 -77 92 -176 152 -245 23 -27 42 -56 42
-65 0 -9 -9 -51 -20 -92 -11 -41 -20 -94 -20 -117 0 -74 46 -193 124 -323 65
-109 73 -127 64 -149 -51 -133 -48 -372 8 -521 10 -28 16 -70 15 -112 -2 -78
8 -102 50 -123 19 -11 37 -32 50 -61 23 -55 23 -54 1 -54 -33 0 -110 -58 -136
-103 -55 -93 -40 -204 37 -278 44 -43 128 -74 171 -63 21 5 26 3 27 -12 2 -94
68 -626 78 -638 8 -9 24 -16 36 -16 49 0 50 7 12 367 l-36 338 29 30 c62 64
80 176 41 252 -18 36 -68 88 -104 110 -8 4 -17 27 -20 50 l-5 43 37 -6 c43 -7
94 14 110 45 6 10 29 135 51 277 23 143 48 293 55 334 8 41 19 111 25 155 23
175 24 177 96 269 60 76 69 84 76 66 4 -11 9 -305 10 -653 2 -494 -1 -707 -15
-977 -9 -190 -22 -453 -27 -585 -6 -132 -15 -305 -20 -385 -5 -80 -11 -219
-12 -310 -3 -164 -2 -166 26 -223 46 -95 152 -157 231 -135 16 4 49 8 72 8 55
0 91 14 131 53 40 38 68 89 76 137 3 19 10 143 16 275 6 132 15 335 20 450 5
116 17 379 25 585 9 206 18 403 21 438 l6 62 34 0 c26 0 34 -4 34 -17 0 -18
14 -305 25 -498 3 -55 10 -183 15 -285 6 -102 19 -365 30 -585 11 -219 25
-416 30 -437 15 -53 67 -117 125 -153 44 -27 56 -30 134 -30 69 0 94 5 127 22
52 28 99 76 124 128 24 49 26 142 10 417 -5 95 -16 306 -25 468 -8 162 -24
466 -35 675 -11 209 -24 470 -30 580 -11 243 -25 1205 -16 1205 3 0 91 -56
194 -125 213 -141 234 -148 294 -96 34 29 623 481 646 494 9 6 12 -12 12 -81
l0 -89 -39 -12 c-43 -12 -173 -101 -234 -159 -83 -79 -172 -229 -215 -362
-106 -323 -114 -790 -21 -1163 26 -104 153 -417 245 -604 l76 -153 -80 -112
c-44 -62 -107 -162 -140 -223 -33 -60 -76 -137 -96 -169 -61 -101 -51 -114 99
-140 91 -16 220 -51 485 -130 184 -56 240 -66 240 -45 0 7 -36 98 -79 203 -44
105 -105 256 -137 336 -31 80 -74 182 -95 228 l-38 83 71 149 c39 82 75 147
80 144 4 -3 20 -28 34 -55 43 -87 52 -78 186 190 126 251 204 437 237 566 42
159 45 442 6 501 -18 27 -84 78 -131 101 -29 14 -32 21 -48 112 -24 137 -85
311 -172 491 -77 159 -99 192 -146 216 -28 14 -28 15 -28 124 0 103 1 110 25
134 18 18 25 36 25 65 0 33 -11 54 -76 140 -42 56 -84 106 -94 111 -24 13 -66
13 -91 -1 -11 -6 -147 -108 -302 -226 -155 -119 -286 -216 -292 -216 -6 0
-123 74 -260 165 -138 91 -272 178 -300 192 l-50 26 -347 0 c-324 0 -352 -1
-410 -21 -35 -11 -73 -28 -84 -37 -12 -9 -126 -150 -254 -312 -128 -162 -261
-330 -295 -373 -66 -84 -65 -80 -98 -286 l-12 -75 -33 187 c-37 209 -106 491
-181 746 -130 435 -367 1116 -397 1138 -23 16 -25 16 -52 -3z m84 -329 c67
-191 144 -416 144 -424 0 -14 -67 63 -109 123 -99 145 -135 242 -136 371 0 99
11 160 25 135 4 -8 38 -100 76 -205z m227 -682 c135 -438 215 -774 251 -1048
l7 -50 -52 85 c-133 218 -157 309 -120 461 12 48 21 94 21 103 0 9 -27 49 -61
89 -136 161 -199 344 -159 463 5 16 14 48 20 72 6 23 14 42 18 42 4 0 38 -98
75 -217z m3342 -786 c22 -31 18 -72 -9 -103 -64 -75 -182 10 -135 97 26 50
111 53 144 6z m-3059 -464 c16 -115 16 -128 0 -245 -10 -68 -21 -127 -25 -131
-5 -4 -15 23 -25 60 -23 96 -21 257 4 357 11 43 20 81 20 84 0 3 2 3 4 1 3 -2
12 -59 22 -126z"/>
</g>
</svg>
