<?xml version="1.0" standalone="no"?>
<!DOCTYPE svg PUBLIC "-//W3C//DTD SVG 20010904//EN"
 "http://www.w3.org/TR/2001/REC-SVG-20010904/DTD/svg10.dtd">
<svg version="1.0" xmlns="http://www.w3.org/2000/svg"
 width="677.000000pt" height="529.000000pt" viewBox="0 0 677.000000 529.000000"
 preserveAspectRatio="xMidYMid meet">

<g transform="translate(0.000000,529.000000) scale(0.100000,-0.100000)"
fill="#000000" stroke="none">
<path d="M1944 4296 c-44 -19 -70 -58 -78 -115 l-6 -49 -100 1 c-114 2 -133
-6 -106 -48 9 -14 41 -39 71 -56 30 -17 55 -32 55 -34 0 -1 -10 -24 -22 -51
-48 -110 -14 -270 75 -350 51 -47 133 -84 200 -91 107 -11 234 50 294 140 30
45 39 68 57 150 6 26 9 27 65 27 67 0 91 6 91 25 0 17 -61 70 -110 95 l-40 20
21 53 c55 134 34 167 -141 221 -117 35 -272 76 -287 76 -4 -1 -22 -7 -39 -14z"/>
<path d="M4610 3900 c-343 -25 -699 -124 -1023 -286 -188 -94 -327 -196 -487
-355 -79 -78 -88 -85 -105 -73 -41 30 -90 17 -258 -67 -89 -44 -172 -84 -183
-89 -19 -7 -45 17 -214 200 -105 114 -203 213 -217 219 -31 14 -227 41 -297
41 -116 -1 -220 -87 -241 -200 -3 -19 -21 -188 -40 -374 -19 -186 -36 -341
-39 -343 -8 -8 -390 35 -658 74 -116 16 -193 23 -223 19 -80 -12 -135 -79
-135 -165 0 -22 16 -115 35 -208 68 -329 83 -369 172 -455 80 -77 144 -103
323 -127 195 -26 406 -46 730 -68 270 -18 1129 -25 1340 -10 438 30 740 57
925 82 141 19 212 52 288 134 30 33 64 79 76 104 23 47 121 493 121 549 0 42
-37 116 -71 140 -38 28 -116 30 -262 8 -503 -77 -1015 -115 -1606 -119 l-374
-2 6 53 c3 29 11 113 18 186 7 72 15 132 19 132 6 0 82 -82 146 -159 30 -36
78 -61 116 -61 13 0 63 18 112 40 49 22 91 39 92 37 2 -2 -10 -23 -27 -47 -33
-51 -34 -76 -2 -97 20 -14 24 -13 45 10 13 13 52 69 87 124 l65 101 89 43 c63
30 95 52 108 74 21 33 25 86 9 114 -8 15 10 37 108 133 212 206 356 298 656
418 297 118 650 190 933 190 l102 0 25 -82 c14 -46 66 -218 116 -383 50 -165
127 -419 171 -565 66 -217 213 -701 235 -772 5 -15 -1 -18 -41 -18 -30 0 -44
-4 -40 -11 4 -5 25 -9 48 -7 33 2 42 -1 45 -14 3 -15 -4 -18 -46 -18 -62 0
-112 -10 -112 -22 0 -5 8 -7 18 -4 9 2 47 7 83 11 l67 6 12 -35 c12 -38 30
-49 30 -18 -1 9 -7 35 -15 57 -8 22 -15 42 -15 43 0 2 53 1 118 -3 64 -4 113
-4 109 1 -4 5 -58 11 -119 14 l-111 5 -18 55 c-9 30 -35 116 -58 190 -23 74
-138 455 -256 845 -199 654 -215 712 -202 735 18 32 11 59 -16 64 -50 11 -180
13 -287 6z"/>
<path d="M5186 1979 c-22 -5 -42 -12 -45 -15 -10 -10 123 7 134 17 12 11 -36
10 -89 -2z"/>
<path d="M5815 1950 c33 -11 65 -18 70 -16 16 6 -46 28 -90 32 -36 3 -34 2 20
-16z"/>
<path d="M5555 1940 c50 -14 155 -26 155 -19 0 11 -95 29 -143 28 -40 -1 -41
-1 -12 -9z"/>
<path d="M5011 1914 c-35 -29 -40 -63 -13 -87 26 -24 137 -67 169 -66 18 0 -2
10 -56 28 -81 27 -126 59 -118 85 2 6 18 20 35 31 31 20 41 35 23 35 -5 0 -23
-12 -40 -26z"/>
<path d="M5162 1893 c-5 -10 -7 -24 -5 -31 6 -16 49 -37 93 -46 45 -8 28 6
-32 28 -27 10 -48 24 -48 32 0 8 5 14 10 14 6 0 10 5 10 10 0 16 -19 11 -28
-7z"/>
<path d="M5941 1882 c16 -25 2 -44 -50 -72 -29 -16 -32 -19 -14 -20 34 0 85
48 81 78 -2 14 -9 27 -16 30 -11 3 -11 0 -1 -16z"/>
<path d="M5770 1872 c0 -12 -66 -40 -112 -48 -21 -3 -36 -10 -33 -14 7 -11
109 14 140 34 25 17 33 36 15 36 -5 0 -10 -4 -10 -8z"/>
<path d="M5385 1799 c36 -11 155 -9 155 3 0 4 -42 8 -92 7 -73 -1 -87 -3 -63
-10z"/>
<path d="M5705 1764 c-44 -8 -115 -14 -157 -14 -51 0 -78 -4 -78 -11 0 -8 27
-10 93 -6 122 8 247 27 247 38 0 10 0 10 -105 -7z"/>
<path d="M5245 1753 c13 -14 123 -24 130 -12 4 5 -5 9 -18 9 -13 0 -46 3 -73
6 -33 5 -46 3 -39 -3z"/>
<path d="M5099 1632 c-69 -23 -146 -74 -233 -153 l-67 -62 -116 12 c-64 6
-118 10 -119 8 -7 -6 110 -177 121 -177 7 0 37 26 66 58 29 31 55 56 58 55 3
0 49 -6 101 -12 78 -10 109 -9 174 3 153 30 267 105 294 193 22 74 9 84 -128
89 -74 3 -108 0 -151 -14z m211 -43 c0 -25 -33 -22 -38 4 -2 12 3 17 17 17 15
0 21 -6 21 -21z"/>
<path d="M5533 1640 c-30 -12 -29 -39 2 -100 37 -73 114 -123 240 -156 56 -15
207 -18 275 -4 l45 8 63 -66 c35 -37 65 -62 68 -57 2 6 28 48 58 95 30 47 53
86 52 88 -2 1 -56 -2 -120 -8 l-117 -11 -57 52 c-90 83 -170 138 -223 153 -54
17 -250 20 -286 6z m92 -36 c0 -10 -8 -20 -17 -22 -18 -3 -26 27 -11 42 12 11
28 0 28 -20z"/>
</g>
</svg>
